<mxfile host="65bd71144e">
    <diagram id="zILrABfxXsvs_dOevO_L" name="Page-1">
        <mxGraphModel dx="881" dy="664" grid="1" gridSize="10" guides="1" tooltips="1" connect="1" arrows="1" fold="1" page="1" pageScale="1" pageWidth="850" pageHeight="1100" math="0" shadow="0">
            <root>
                <mxCell id="0"/>
                <mxCell id="1" parent="0"/>
                <mxCell id="4" value="&lt;font style=&quot;font-size: 15px&quot;&gt;Stroke&lt;/font&gt;" style="ellipse;whiteSpace=wrap;html=1;fillColor=#76608a;strokeColor=#432D57;fontColor=#ffffff;" parent="1" vertex="1">
                    <mxGeometry x="780" y="510" width="120" height="70" as="geometry"/>
                </mxCell>
                <mxCell id="79" style="edgeStyle=none;html=1;fontSize=15;fontColor=#FFFFFF;" parent="1" source="11" target="77" edge="1">
                    <mxGeometry relative="1" as="geometry"/>
                </mxCell>
                <mxCell id="11" value="&lt;font style=&quot;font-size: 15px&quot;&gt;Heart disease&lt;br&gt;(eg. CAD, CHD...)&lt;br&gt;&lt;/font&gt;" style="ellipse;whiteSpace=wrap;html=1;fillColor=#647687;fontColor=#ffffff;strokeColor=none;strokeWidth=3;" parent="1" vertex="1">
                    <mxGeometry x="940" y="250" width="130" height="70" as="geometry"/>
                </mxCell>
                <mxCell id="92" style="edgeStyle=none;html=1;fontSize=15;fontColor=#FFFFFF;" parent="1" source="21" target="4" edge="1">
                    <mxGeometry relative="1" as="geometry">
                        <mxPoint x="679.0920675157317" y="450.00112435350434" as="targetPoint"/>
                    </mxGeometry>
                </mxCell>
                <mxCell id="95" value="&lt;span style=&quot;color: rgba(0 , 0 , 0 , 0) ; font-family: monospace ; font-size: 0px&quot;&gt;%3CmxGraphModel%3E%3Croot%3E%3CmxCell%20id%3D%220%22%2F%3E%3CmxCell%20id%3D%221%22%20parent%3D%220%22%2F%3E%3CmxCell%20id%3D%222%22%20value%3D%22%26lt%3Bspan%20style%3D%26quot%3Bcolor%3A%20rgba(0%20%2C%200%20%2C%200%20%2C%200)%20%3B%20font-family%3A%20monospace%20%3B%20font-size%3A%200px%26quot%3B%26gt%3Bd%26lt%3B%2Fspan%26gt%3B%22%20style%3D%22text%3Bhtml%3D1%3Balign%3Dcenter%3BverticalAlign%3Dmiddle%3Bresizable%3D0%3Bpoints%3D%5B%5D%3Bautosize%3D1%3BstrokeColor%3Dnone%3BfillColor%3Dnone%3BfontSize%3D15%3BfontColor%3D%23FFFFFF%3B%22%20vertex%3D%221%22%20parent%3D%221%22%3E%3CmxGeometry%20x%3D%22550%22%20y%3D%22455%22%20width%3D%2220%22%20height%3D%2230%22%20as%3D%22geometry%22%2F%3E%3C%2FmxCell%3E%3C%2Froot%3E%3C%2FmxGraphModel%3E&lt;/span&gt;" style="edgeLabel;html=1;align=center;verticalAlign=middle;resizable=0;points=[];fontSize=15;fontColor=#FFFFFF;" parent="92" vertex="1" connectable="0">
                    <mxGeometry x="0.2117" y="-1" relative="1" as="geometry">
                        <mxPoint x="1" as="offset"/>
                    </mxGeometry>
                </mxCell>
                <mxCell id="21" value="&lt;font style=&quot;font-size: 15px&quot;&gt;Hypertension&lt;/font&gt;" style="ellipse;whiteSpace=wrap;html=1;fillColor=#647687;strokeColor=#314354;fontColor=#ffffff;strokeWidth=4;" parent="1" vertex="1">
                    <mxGeometry x="765" y="340" width="120" height="70" as="geometry"/>
                </mxCell>
                <mxCell id="89" style="edgeStyle=none;html=1;fontSize=15;fontColor=#FFFFFF;" parent="1" source="23" target="77" edge="1">
                    <mxGeometry relative="1" as="geometry"/>
                </mxCell>
                <mxCell id="90" style="edgeStyle=none;html=1;fontSize=15;fontColor=#FFFFFF;entryX=1;entryY=0;entryDx=0;entryDy=0;" parent="1" source="23" target="4" edge="1">
                    <mxGeometry relative="1" as="geometry">
                        <mxPoint x="738.1101577930849" y="449.0788264276066" as="targetPoint"/>
                    </mxGeometry>
                </mxCell>
                <mxCell id="23" value="&lt;span style=&quot;font-size: 15px&quot;&gt;High blood glucose&lt;br&gt;level&lt;br&gt;&lt;/span&gt;" style="ellipse;whiteSpace=wrap;html=1;fillColor=#647687;fontColor=#ffffff;strokeColor=#314354;strokeWidth=3;" parent="1" vertex="1">
                    <mxGeometry x="900" y="370" width="120" height="70" as="geometry"/>
                </mxCell>
                <mxCell id="29" style="edgeStyle=none;html=1;fontSize=15;" parent="1" source="26" target="27" edge="1">
                    <mxGeometry relative="1" as="geometry"/>
                </mxCell>
                <mxCell id="30" style="edgeStyle=none;html=1;fontSize=15;" parent="1" source="26" target="21" edge="1">
                    <mxGeometry relative="1" as="geometry"/>
                </mxCell>
                <mxCell id="32" style="edgeStyle=none;html=1;fontSize=15;fontColor=#FFFFFF;" parent="1" source="26" target="11" edge="1">
                    <mxGeometry relative="1" as="geometry"/>
                </mxCell>
                <mxCell id="26" value="&lt;span style=&quot;font-size: 15px&quot;&gt;Obesity&lt;br&gt;&lt;/span&gt;" style="ellipse;whiteSpace=wrap;html=1;fillColor=#647687;fontColor=#ffffff;strokeColor=none;strokeWidth=3;" parent="1" vertex="1">
                    <mxGeometry x="1010" y="110" width="120" height="70" as="geometry"/>
                </mxCell>
                <mxCell id="28" style="edgeStyle=none;html=1;fontSize=15;" parent="1" source="27" target="23" edge="1">
                    <mxGeometry relative="1" as="geometry"/>
                </mxCell>
                <mxCell id="27" value="&lt;span style=&quot;font-size: 15px&quot;&gt;Diabetes&lt;br&gt;&lt;/span&gt;" style="ellipse;whiteSpace=wrap;html=1;fillColor=#647687;fontColor=#ffffff;strokeColor=#314354;" parent="1" vertex="1">
                    <mxGeometry x="800" y="190" width="120" height="70" as="geometry"/>
                </mxCell>
                <mxCell id="37" style="edgeStyle=none;html=1;fontSize=15;fontColor=#FFFFFF;" parent="1" source="36" target="21" edge="1">
                    <mxGeometry relative="1" as="geometry"/>
                </mxCell>
                <mxCell id="93" style="edgeStyle=none;html=1;fontSize=15;fontColor=#FFFFFF;" parent="1" source="36" target="4" edge="1">
                    <mxGeometry relative="1" as="geometry">
                        <mxPoint x="730" y="470" as="targetPoint"/>
                    </mxGeometry>
                </mxCell>
                <mxCell id="36" value="&lt;span style=&quot;font-size: 15px&quot;&gt;Smoking&lt;br&gt;&lt;/span&gt;" style="ellipse;whiteSpace=wrap;html=1;fillColor=#647687;fontColor=#ffffff;strokeColor=#314354;strokeWidth=3;" parent="1" vertex="1">
                    <mxGeometry x="500" y="525" width="120" height="70" as="geometry"/>
                </mxCell>
                <mxCell id="44" value="&lt;span style=&quot;color: rgba(0 , 0 , 0 , 0) ; font-family: monospace ; font-size: 0px&quot;&gt;d&lt;/span&gt;" style="text;html=1;align=center;verticalAlign=middle;resizable=0;points=[];autosize=1;strokeColor=none;fillColor=none;fontSize=15;fontColor=#FFFFFF;" parent="1" vertex="1">
                    <mxGeometry x="740" y="485" width="20" height="30" as="geometry"/>
                </mxCell>
                <mxCell id="78" style="edgeStyle=none;html=1;fontSize=15;fontColor=#FFFFFF;" parent="1" source="54" target="77" edge="1">
                    <mxGeometry relative="1" as="geometry"/>
                </mxCell>
                <mxCell id="54" value="&lt;span style=&quot;font-size: 15px&quot;&gt;Age&lt;br&gt;&lt;/span&gt;" style="ellipse;whiteSpace=wrap;html=1;fillColor=#647687;fontColor=#ffffff;strokeColor=none;strokeWidth=3;" parent="1" vertex="1">
                    <mxGeometry x="1060" y="320" width="120" height="70" as="geometry"/>
                </mxCell>
                <mxCell id="61" style="edgeStyle=none;html=1;fontSize=15;fontColor=#FFFFFF;entryX=0;entryY=0.5;entryDx=0;entryDy=0;" parent="1" source="60" target="4" edge="1">
                    <mxGeometry relative="1" as="geometry">
                        <mxPoint x="470.0499168139654" y="553.5726170669992" as="targetPoint"/>
                    </mxGeometry>
                </mxCell>
                <mxCell id="60" value="&lt;font style=&quot;font-size: 15px&quot;&gt;Air pollution&lt;br&gt;exposure&lt;br&gt;&lt;/font&gt;" style="ellipse;whiteSpace=wrap;html=1;fillColor=#647687;fontColor=#ffffff;strokeColor=#314354;" parent="1" vertex="1">
                    <mxGeometry x="530" y="640" width="120" height="70" as="geometry"/>
                </mxCell>
                <mxCell id="101" style="edgeStyle=none;html=1;" parent="1" source="77" target="4" edge="1">
                    <mxGeometry relative="1" as="geometry"/>
                </mxCell>
                <mxCell id="77" value="&lt;font style=&quot;font-size: 15px&quot;&gt;&lt;span style=&quot;color: rgb(240 , 240 , 240)&quot;&gt;Plaque buildup&lt;/span&gt;&lt;br style=&quot;color: rgb(240 , 240 , 240)&quot;&gt;&lt;span style=&quot;color: rgb(240 , 240 , 240)&quot;&gt;(&lt;/span&gt;&lt;a href=&quot;https://www.webmd.com/heart-disease/what-is-atherosclerosis&quot;&gt;&lt;font color=&quot;#ffffff&quot;&gt;&lt;i&gt;atherosclerosis&lt;/i&gt;&lt;/font&gt;&lt;/a&gt;&lt;span style=&quot;color: rgb(240 , 240 , 240)&quot;&gt;)&lt;/span&gt;&lt;br&gt;&lt;/font&gt;" style="ellipse;whiteSpace=wrap;html=1;fillColor=#647687;fontColor=#ffffff;strokeColor=#314354;" parent="1" vertex="1">
                    <mxGeometry x="1000" y="495" width="120" height="70" as="geometry"/>
                </mxCell>
                <mxCell id="82" style="edgeStyle=none;html=1;fontSize=15;fontColor=#FFFFFF;" parent="1" source="81" target="27" edge="1">
                    <mxGeometry relative="1" as="geometry"/>
                </mxCell>
                <mxCell id="81" value="&lt;span style=&quot;font-size: 15px&quot;&gt;Family history&lt;br&gt;&lt;/span&gt;" style="ellipse;whiteSpace=wrap;html=1;fillColor=#647687;fontColor=#ffffff;strokeColor=#314354;" parent="1" vertex="1">
                    <mxGeometry x="820" y="40" width="120" height="70" as="geometry"/>
                </mxCell>
                <mxCell id="96" value="&lt;span style=&quot;color: rgba(0 , 0 , 0 , 0) ; font-family: monospace ; font-size: 0px&quot;&gt;d&lt;/span&gt;" style="text;html=1;align=center;verticalAlign=middle;resizable=0;points=[];autosize=1;strokeColor=none;fillColor=none;fontSize=15;fontColor=#FFFFFF;" parent="1" vertex="1">
                    <mxGeometry x="750" y="495" width="20" height="30" as="geometry"/>
                </mxCell>
                <mxCell id="109" style="edgeStyle=none;html=1;fontSize=15;" parent="1" source="105" target="21" edge="1">
                    <mxGeometry relative="1" as="geometry"/>
                </mxCell>
                <mxCell id="105" value="&lt;font style=&quot;font-size: 15px&quot;&gt;Stress&lt;br&gt;&lt;/font&gt;" style="ellipse;whiteSpace=wrap;html=1;fillColor=#647687;fontColor=#ffffff;strokeColor=#314354;" parent="1" vertex="1">
                    <mxGeometry x="640" y="130" width="120" height="70" as="geometry"/>
                </mxCell>
                <mxCell id="111" style="edgeStyle=none;html=1;fontSize=15;" parent="1" source="110" target="77" edge="1">
                    <mxGeometry relative="1" as="geometry"/>
                </mxCell>
                <mxCell id="110" value="&lt;font style=&quot;font-size: 15px&quot;&gt;&lt;font color=&quot;#f0f0f0&quot;&gt;High cholesterol&lt;/font&gt;&lt;br&gt;&lt;/font&gt;" style="ellipse;whiteSpace=wrap;html=1;fillColor=#647687;fontColor=#ffffff;strokeColor=#314354;" parent="1" vertex="1">
                    <mxGeometry x="1170" y="360" width="120" height="70" as="geometry"/>
                </mxCell>
                <mxCell id="113" style="edgeStyle=none;html=1;fontSize=15;" parent="1" source="112" target="77" edge="1">
                    <mxGeometry relative="1" as="geometry"/>
                </mxCell>
                <mxCell id="112" value="&lt;font style=&quot;font-size: 15px&quot;&gt;&lt;font color=&quot;#f0f0f0&quot;&gt;Physical&lt;br&gt;&lt;/font&gt;inactivity&lt;br&gt;&lt;/font&gt;" style="ellipse;whiteSpace=wrap;html=1;fillColor=#647687;fontColor=#ffffff;strokeColor=#314354;" parent="1" vertex="1">
                    <mxGeometry x="1200" y="455" width="120" height="70" as="geometry"/>
                </mxCell>
                <mxCell id="118" style="edgeStyle=none;html=1;fontSize=15;" parent="1" source="116" target="27" edge="1">
                    <mxGeometry relative="1" as="geometry"/>
                </mxCell>
                <mxCell id="119" style="edgeStyle=none;html=1;fontSize=15;" parent="1" source="116" target="21" edge="1">
                    <mxGeometry relative="1" as="geometry"/>
                </mxCell>
                <mxCell id="122" style="edgeStyle=none;html=1;fontSize=15;" parent="1" source="116" target="120" edge="1">
                    <mxGeometry relative="1" as="geometry"/>
                </mxCell>
                <mxCell id="124" style="edgeStyle=none;html=1;fontSize=15;" parent="1" source="116" target="123" edge="1">
                    <mxGeometry relative="1" as="geometry"/>
                </mxCell>
                <mxCell id="116" value="&lt;font style=&quot;font-size: 15px&quot;&gt;Sex&lt;br&gt;&lt;/font&gt;" style="ellipse;whiteSpace=wrap;html=1;fillColor=#647687;fontColor=#ffffff;strokeColor=#314354;" parent="1" vertex="1">
                    <mxGeometry x="510" y="210" width="120" height="70" as="geometry"/>
                </mxCell>
                <mxCell id="121" style="edgeStyle=none;html=1;fontSize=15;" parent="1" source="120" target="4" edge="1">
                    <mxGeometry relative="1" as="geometry"/>
                </mxCell>
                <mxCell id="120" value="&lt;font style=&quot;font-size: 15px&quot;&gt;Pregnancy&lt;br&gt;&lt;/font&gt;" style="ellipse;whiteSpace=wrap;html=1;fillColor=#647687;fontColor=#ffffff;strokeColor=#314354;" parent="1" vertex="1">
                    <mxGeometry x="630" y="330" width="120" height="70" as="geometry"/>
                </mxCell>
                <mxCell id="125" style="edgeStyle=none;html=1;fontSize=15;" parent="1" source="123" target="4" edge="1">
                    <mxGeometry relative="1" as="geometry"/>
                </mxCell>
                <mxCell id="123" value="&lt;font style=&quot;font-size: 15px&quot;&gt;Hormonal&lt;br&gt;birth control&lt;br&gt;&lt;/font&gt;" style="ellipse;whiteSpace=wrap;html=1;fillColor=#647687;fontColor=#ffffff;strokeColor=#314354;" parent="1" vertex="1">
                    <mxGeometry x="520" y="400" width="120" height="70" as="geometry"/>
                </mxCell>
            </root>
        </mxGraphModel>
    </diagram>
</mxfile>